<svg xmlns:xlink="http://www.w3.org/1999/xlink" xmlns="http://www.w3.org/2000/svg" width="89" height="40" viewBox="0 0 89 40" fill="none">
  <path d="M29.7369 0H10.3005C4.61172 0 0 4.60741 0 10.2907V29.7091C0 35.3926 4.61172 40 10.3005 40H29.7369C35.4257 40 40.0374 35.3926 40.0374 29.7091V10.2907C40.0374 4.60741 35.4257 0 29.7369 0Z" fill="#FFBC00"/>
  <path d="M8.3867 25.1468C8.36979 25.1663 8.35273 25.1861 8.33598 25.2055C8.24074 25.316 8.23904 25.4801 8.33411 25.5906C11.2098 28.9354 15.4619 31.0527 20.2066 31.0527C24.9916 31.0527 29.2759 28.9 32.1523 25.5063C32.2461 25.3956 32.2438 25.2326 32.1492 25.1227C32.1475 25.1209 32.1458 25.1189 32.144 25.1169C32.0471 25.0045 31.8825 24.982 31.7577 25.0625C28.4392 27.2039 24.4862 28.4479 20.2419 28.4479C16.0172 28.4479 12.0811 27.2153 8.77229 25.0921C8.64758 25.0121 8.48348 25.0347 8.3867 25.1468Z" fill="#041C33"/>
  <path d="M24.8263 14.6191C23.3972 14.5731 21.968 14.5308 20.5389 14.4923C20.2679 14.4851 20.0506 14.2658 20.0468 13.9948C20.0348 13.1626 20.0227 12.3305 20.0108 11.4982C20.0064 11.2072 20.2489 10.9728 20.54 10.9867C20.964 11.0072 21.5933 11.0442 22.727 11.1124C23.0837 11.1339 23.4086 11.3282 23.5963 11.6327C24.1047 12.4573 24.6133 13.2821 25.1218 14.1074C25.2624 14.336 25.094 14.6278 24.8263 14.6191ZM18.946 13.9994C18.9357 14.2687 18.7153 14.4829 18.4455 14.4858C16.7554 14.5038 15.0654 14.5271 13.3754 14.5556C12.8215 14.5653 12.4794 13.9619 12.7705 13.4884C12.8642 13.3359 12.958 13.1834 13.0517 13.0311C13.8188 11.7835 15.1642 11.0081 16.6234 10.972C17.3379 10.9542 18.1635 10.9525 18.5435 10.9557C18.8281 10.958 19.0536 11.1948 19.0428 11.479C19.0105 12.3192 18.9782 13.1592 18.946 13.9994ZM34.0124 17.1728C33.966 16.4749 33.6097 15.8188 33.0403 15.3793C32.6743 15.0968 32.2387 14.9186 31.7844 14.8655C30.603 14.7051 29.4216 14.5475 28.2401 14.3924C28.1004 14.3741 27.974 14.2986 27.8916 14.1838C27.8808 14.1685 27.8696 14.1531 27.8587 14.1376C27.8096 14.0716 27.7604 14.0056 27.7114 13.9395C27.5752 13.9703 27.437 14.0059 27.3117 14.0467C26.8276 14.2041 26.6353 14.2677 26.2339 13.7791C26.2162 13.7533 26.1984 13.7276 26.1807 13.7019C25.6389 12.9155 25.097 12.1295 24.5552 11.3442C24.4303 11.1629 24.5528 10.9168 24.7723 10.9081C24.9673 10.9007 25.1999 10.8984 25.4494 10.8996C25.4275 10.8719 25.4053 10.8432 25.3833 10.8156C24.9758 10.3035 24.3878 9.968 23.7407 9.88013C23.5853 9.85906 23.4254 9.83953 23.2641 9.82032C23.0977 9.49072 22.9314 9.16128 22.765 8.83183C22.5038 8.83106 22.2424 8.83028 21.9812 8.82982C21.9811 8.82982 21.4546 9.56665 20.2841 9.57688C19.538 9.54046 18.8155 9.52187 18.177 9.52342C17.3793 9.52543 16.5882 9.58416 15.8043 9.66815C14.5579 9.80157 13.4013 10.3881 12.5333 11.2988C11.6703 12.2044 10.87 13.1837 10.1508 14.25C10.0822 14.3513 9.98047 14.4259 9.8629 14.4587C9.56247 14.5426 9.26187 14.6264 8.96128 14.7105C8.24377 14.8858 7.59667 15.2828 7.11213 15.8445C6.55639 16.4885 6.24928 17.3078 6.24695 18.1513C6.24478 18.9013 6.24602 19.8566 6.25905 20.6996C6.26091 20.8248 6.30263 20.9449 6.37786 21.044C6.4475 21.1356 6.51699 21.2274 6.58663 21.3189C6.69908 21.4672 6.8759 21.5525 7.06358 21.5495C7.86423 21.5365 8.66472 21.5249 9.46537 21.5142C9.60651 22.5602 10.5013 23.3672 11.5869 23.3672C12.4949 23.3672 13.269 22.8022 13.5812 22.0059C17.6308 21.9727 21.6806 21.973 25.7302 22.0006C26.0412 22.7997 26.8168 23.3672 27.7266 23.3672C28.6228 23.3672 29.3893 22.8172 29.7095 22.0372C30.7027 22.0489 31.696 22.059 32.6893 22.0744C32.8086 22.0761 32.9117 21.9944 32.9366 21.8782C32.9628 21.7551 32.989 21.6323 33.0152 21.5092C33.0324 21.4285 33.0896 21.3646 33.1652 21.3313C33.3332 21.2571 33.4886 21.1575 33.6251 21.0338C33.9678 20.7239 34.1678 20.2911 34.1884 19.8278C34.1296 18.9428 34.071 18.0578 34.0124 17.1728Z" fill="#041C33"/>
  <path d="M62.3217 14.7461C62.6113 14.4206 63.0309 14.2349 63.4031 14.0962C63.8245 13.9387 64.1555 13.858 64.5745 13.7556L64.9329 13.6682C65.191 13.6057 65.3218 13.5741 65.4997 13.5183C65.4978 14.3782 65.4823 15.2615 64.8464 15.929C64.4803 16.313 63.8892 16.5613 63.3402 16.5613C62.9592 16.5613 62.6295 16.4419 62.3867 16.2163C62.18 16.0242 62.0751 15.772 62.0751 15.4668C62.0751 15.1724 62.1581 14.9298 62.3217 14.7461ZM66.8103 9.77388C66.5003 9.46117 66.1165 9.22083 65.6698 9.05982C65.2061 8.89278 64.4481 8.81824 63.9026 8.81824C63.3161 8.81824 62.7912 8.90424 62.3428 9.07377C61.8943 9.2433 61.511 9.47388 61.2042 9.759C60.8966 10.0451 60.6623 10.3812 60.5075 10.7577C60.3524 11.1341 60.2739 11.5373 60.2739 11.9562V11.9986H62.3371V11.9562C62.3371 11.7939 62.3709 11.6325 62.4376 11.4763C62.5043 11.3198 62.6016 11.177 62.7267 11.052C62.8519 10.9269 63.0056 10.8237 63.1835 10.745C63.3751 10.6602 63.6211 10.6155 63.8947 10.6155C64.1022 10.6155 64.32 10.6409 64.5242 10.6888C64.9554 10.7901 65.2476 11.0929 65.3931 11.5889C65.4638 11.8303 65.4998 12.139 65.4998 12.5067V12.6718C64.6776 12.6735 63.7659 12.7211 63.1657 12.794C62.4958 12.8754 61.8991 13.0313 61.392 13.2575C60.8816 13.4852 60.4717 13.8072 60.1734 14.2146C59.8743 14.6232 59.7227 15.1631 59.7227 15.8188C59.7227 16.2086 59.7925 16.5591 59.9299 16.8608C60.0675 17.1631 60.2595 17.42 60.5011 17.6246C60.7425 17.8293 61.0331 17.9867 61.3647 18.0929C61.7302 18.2102 62.1266 18.2695 62.5429 18.2695C63.0205 18.2695 63.499 18.189 63.9266 18.0362C64.3352 17.8903 64.6956 17.6781 64.9981 17.405C65.1896 17.2319 65.4761 16.951 65.6174 16.7007V18.0272H67.7709V12.5518C67.7709 11.9478 67.688 11.4072 67.5246 10.9448C67.3606 10.4806 67.1202 10.0867 66.8103 9.77388Z" fill="white"/>
  <path d="M84.2969 18.1152H86.5793V9.74649H84.2969V18.1152Z" fill="white"/>
  <path d="M84.2969 8.98633H86.5793V7.08434H84.2969V8.98633Z" fill="white"/>
  <path d="M54.9604 14.7295L52.6588 9.05314H50.0898L53.7401 17.2903L52.4173 20.293H54.7244L54.7354 20.2672C54.911 19.8578 55.0974 19.424 55.2979 18.9586C55.7555 17.8875 56.3353 16.5352 57.037 14.9018C57.7384 13.2682 58.5713 11.3386 59.5345 9.11233L59.5602 9.05314H57.1811L54.9604 14.7295Z" fill="white"/>
  <path d="M81.2543 9.02435C81.1778 9.05101 81.0998 9.08216 81.0095 9.12183L80.9721 9.13778C80.7305 9.24796 80.5085 9.38727 80.3116 9.55261C79.6406 10.1415 79.3567 11.0229 79.2375 11.6187V9.05364H77.084V18.0371H79.364V14.0147C79.364 13.5699 79.4256 13.1678 79.5469 12.8193C79.6676 12.4724 79.8583 12.1728 80.1143 11.9289C80.3705 11.6849 80.7024 11.4953 81.1009 11.3655C81.5012 11.2352 81.9876 11.1691 82.5466 11.1691H82.589V8.82802H82.5466C82.0625 8.82802 81.6276 8.89403 81.2543 9.02435Z" fill="white"/>
  <path d="M73.5367 16.2577C73.4925 16.2577 73.4515 16.2567 73.4115 16.254C73.052 16.254 72.8103 16.1214 72.6723 15.8485C72.5315 15.5702 72.4601 15.147 72.4601 14.5907V10.8749H74.9591V9.05213H72.4601V7.06508H70.8904L70.8881 7.10491C70.8754 7.31689 70.8596 7.49804 70.8397 7.65873C70.7921 8.04133 70.7143 8.35915 70.6083 8.60367C70.5033 8.84479 70.3685 9.02238 70.2075 9.13147C70.0471 9.2404 69.8486 9.29572 69.6172 9.29572H69.1953V10.8749H70.1889V14.5095C70.1889 14.9851 70.2317 15.4507 70.3163 15.8937C70.4012 16.3396 70.5553 16.7394 70.774 17.0818C70.9934 17.4263 71.301 17.7062 71.6883 17.9132C72.0858 18.1256 72.5888 18.238 73.143 18.238C73.1672 18.238 73.1916 18.2377 73.2158 18.2374L73.2161 18.2383H73.2445C74.2672 18.2383 75.1563 17.7846 75.1651 17.7801L75.1881 17.7681V16.0647L75.1383 16.0733C75.1279 16.0752 74.0861 16.2577 73.5367 16.2577Z" fill="white"/>
  <path d="M61.4409 29.4529C61.7303 29.1278 62.15 28.9419 62.5223 28.803C62.9451 28.6453 63.2773 28.5641 63.6978 28.4615L64.049 28.376C64.3088 28.3129 64.4401 28.2811 64.6188 28.2252C64.617 29.0854 64.6014 29.9685 63.9654 30.6359C63.5995 31.02 63.0082 31.2683 62.4591 31.2683C62.0782 31.2683 61.7486 31.149 61.506 30.9233C61.2991 30.731 61.1941 30.4789 61.1941 30.1738C61.1941 29.8792 61.2772 29.6369 61.4409 29.4529ZM65.9293 24.4808C65.6191 24.1679 65.2354 23.9275 64.789 23.7667C64.3249 23.5998 63.5669 23.5251 63.0217 23.5251C62.4353 23.5251 61.9104 23.6111 61.462 23.7806C61.0133 23.9503 60.6302 24.1809 60.3234 24.466C60.0159 24.7521 59.7816 25.0882 59.6266 25.4646C59.4715 25.8411 59.3929 26.2443 59.3929 26.6632V26.7057H61.4562V26.6632C61.4562 26.501 61.4901 26.3395 61.5567 26.1833C61.6234 26.0268 61.7207 25.8841 61.8459 25.759C61.9709 25.634 62.1246 25.5306 62.3026 25.4519C62.4942 25.3673 62.74 25.3223 63.0135 25.3223C63.2212 25.3223 63.4391 25.3478 63.6435 25.3958C64.0746 25.4971 64.3668 25.7999 64.5123 26.2959C64.583 26.5374 64.619 26.8459 64.619 27.2136V27.3788C63.7968 27.3805 62.8851 27.4281 62.2848 27.5011C61.6154 27.5823 61.0187 27.7382 60.5112 27.9646C60.0007 28.1922 59.5908 28.5142 59.2927 28.9214C58.9935 29.3302 58.8418 29.8701 58.8418 30.5259C58.8418 30.9154 58.9116 31.266 59.049 31.5678C59.1867 31.8703 59.3788 32.1274 59.6201 32.3315C59.8615 32.5362 60.152 32.6936 60.4839 32.7999C60.8493 32.9172 61.2458 32.9766 61.6621 32.9766C62.1396 32.9766 62.6181 32.896 63.0457 32.743C63.4541 32.5974 63.8148 32.3849 64.1172 32.112C64.3088 31.939 64.5952 31.6579 64.7364 31.4078V32.7342H66.89V27.2589C66.89 26.6548 66.8072 26.114 66.6439 25.6518C66.4798 25.1877 66.2395 24.7938 65.9293 24.4808Z" fill="white"/>
  <path d="M85.8184 32.5703H88.1007V24.582H85.8184V32.5703Z" fill="white"/>
  <path d="M85.8184 23.4414H88.1007V21.5394H85.8184V23.4414Z" fill="white"/>
  <path d="M56.7704 28.1876C56.5252 27.9912 56.2448 27.832 55.9371 27.7144C55.6323 27.598 55.3134 27.4962 54.9891 27.4122C54.6655 27.3284 54.3472 27.2542 54.0437 27.1917C53.7411 27.1296 53.4664 27.0563 53.2269 26.9735C52.9907 26.892 52.7988 26.789 52.6567 26.6672C52.5185 26.5491 52.4514 26.398 52.4514 26.2057C52.4514 26.047 52.4885 25.9065 52.5618 25.7882C52.636 25.6686 52.7359 25.5673 52.8588 25.4872C52.9825 25.4067 53.1261 25.3468 53.2857 25.309C53.4465 25.271 53.6111 25.2518 53.7746 25.2518C53.9841 25.2518 54.1822 25.2812 54.3634 25.3395C54.5428 25.3973 54.6996 25.4838 54.8295 25.5959C54.9588 25.7081 55.0624 25.8495 55.1373 26.0167C55.2124 26.1842 55.2504 26.3807 55.2504 26.6005V26.643H57.2491V26.6005C57.2491 26.1485 57.174 25.7311 57.026 25.3596C56.8774 24.9874 56.6561 24.6636 56.3684 24.3973C56.0805 24.131 55.7187 23.9225 55.2932 23.7778C54.8684 23.6334 54.3755 23.5602 53.8286 23.5602C53.3176 23.5602 52.8433 23.6273 52.4188 23.7597C51.9932 23.8923 51.6213 24.0834 51.3134 24.3278C51.0041 24.5732 50.7612 24.8772 50.5917 25.2315C50.422 25.5857 50.3359 25.986 50.3359 26.4211C50.3359 26.839 50.4101 27.1957 50.5563 27.4816C50.7018 27.7668 50.896 28.0085 51.1335 28.1999C51.3692 28.3903 51.6436 28.5465 51.9489 28.6643C52.2513 28.781 52.5626 28.8812 52.8744 28.962C53.1869 29.043 53.4973 29.1172 53.7969 29.1823C54.0964 29.2474 54.3651 29.324 54.5954 29.4095C54.8231 29.4941 55.0089 29.6001 55.1477 29.7245C55.2833 29.8459 55.3494 30.0013 55.3494 30.1999C55.3494 30.4728 55.2319 30.7112 55.0004 30.9081C54.7668 31.1069 54.3997 31.2076 53.9094 31.2076C53.6162 31.2076 53.3566 31.1678 53.1376 31.0891C52.919 31.0104 52.7351 30.9018 52.5908 30.766C52.4466 30.6306 52.3383 30.4671 52.2691 30.2797C52.1992 30.0907 52.1638 29.8796 52.1638 29.6525V29.61H50.1113V29.6525C50.1113 30.1282 50.1862 30.5742 50.3341 30.9775C50.4822 31.3824 50.7124 31.7396 51.0181 32.0388C51.3236 32.3382 51.7173 32.5755 52.1879 32.7442C52.6575 32.9127 53.2215 32.998 53.8644 32.998C54.471 32.998 55.0134 32.9249 55.4762 32.7806C55.9408 32.6361 56.3341 32.4295 56.6454 32.1668C56.9575 31.9034 57.1956 31.5857 57.3533 31.2221C57.5107 30.8596 57.5905 30.4552 57.5905 30.0205C57.5905 29.591 57.5148 29.2235 57.3657 28.9287C57.2168 28.6344 57.0166 28.3851 56.7704 28.1876Z" fill="white"/>
  <path d="M83.1906 25.3155C82.9571 24.9674 82.6513 24.6894 82.2815 24.4895C81.9116 24.2896 81.4604 24.1882 80.9405 24.1882C79.8842 24.1882 78.4662 24.9963 78.1079 26.3525V21.7715H75.8398V32.7734H78.1079V28.566C78.1079 28.237 78.1557 27.9212 78.2497 27.6275C78.3432 27.335 78.4755 27.0765 78.6426 26.8596C78.8092 26.6437 79.0089 26.4709 79.236 26.3457C79.4622 26.2211 79.7122 26.1579 79.9793 26.1579C80.5071 26.1579 80.9127 26.3511 81.1844 26.7325C81.4594 27.1183 81.5989 27.6808 81.5989 28.4044V32.7734H83.8581V28.0363C83.8581 27.5096 83.8049 27.0066 83.6996 26.5414C83.5943 26.075 83.4231 25.6627 83.1906 25.3155Z" fill="white"/>
  <path d="M72.46 30.9648C72.416 30.9648 72.3752 30.9637 72.3352 30.9611C71.976 30.9611 71.7342 30.8284 71.5963 30.5555C71.4554 30.2772 71.3839 29.854 71.3839 29.2977V25.5819H73.883V23.759H71.3839V21.7721H69.8143L69.812 21.8119C69.7992 22.0241 69.7834 22.2052 69.7636 22.3656C69.7161 22.748 69.6382 23.066 69.5321 23.3107C69.4271 23.5518 69.2924 23.7294 69.1314 23.8385C68.971 23.9474 68.7723 24.0028 68.541 24.0028H68.1191V25.5819H69.1127V29.2165C69.1127 29.6921 69.1555 30.1579 69.2401 30.6008C69.3251 31.0467 69.4791 31.4464 69.6978 31.7888C69.9173 32.1333 70.225 32.4132 70.6121 32.6202C71.0097 32.8327 71.513 32.9448 72.0676 32.9448C72.0917 32.9448 72.1156 32.9447 72.1396 32.9444L72.1399 32.9453H72.1683C73.1911 32.9453 74.0801 32.4916 74.0891 32.4871L74.1121 32.4752V30.7717L74.0621 30.7804C74.0517 30.7822 73.0093 30.9648 72.46 30.9648Z" fill="white"/>
</svg>