<svg xmlns="http://www.w3.org/2000/svg" viewBox="0 0 319.63 100.3"><defs><style>.cls-1{fill:#22262f;}.cls-2{fill:#fec400;}</style></defs><title>Logo Dark</title><g id="Layer_2" data-name="Layer 2"><g id="Layer_1-2" data-name="Layer 1"><path class="cls-1" d="M127.3,32.55a11,11,0,0,0,8-3.35l1.72,2.08a13.53,13.53,0,0,1-9.76,3.91c-7.43,0-12.89-5.43-12.89-13.51,0-7.77,5.11-13.2,12.64-13.2,7.68,0,11.53,5.74,11.53,11.63a15.48,15.48,0,0,1-.26,2.74h-21C117.75,28.64,121.64,32.55,127.3,32.55Zm8.29-12.24v-.46c0-4.92-3.18-8.73-8.59-8.73s-9.15,3.66-9.71,9.19Z"/><path class="cls-1" d="M164.6,19V34.53h-2.43l-.25-4.62a12,12,0,0,1-10.06,5.28c-4.55,0-8.8-2.69-8.8-7.92,0-5.64,5-7.92,10.37-7.92a27.82,27.82,0,0,1,8.39,1.32V19c0-5.18-2.63-7.82-7.53-7.82a13.68,13.68,0,0,0-8.65,3L144.33,12a16.09,16.09,0,0,1,10.26-3.5C160.91,8.48,164.6,11.88,164.6,19Zm-2.78,5.54V23.16a24.19,24.19,0,0,0-8-1.38c-4.35,0-7.79,1.58-7.79,5.44,0,3.25,2.53,5.23,6.27,5.23C157.17,32.45,161.82,29.15,161.82,24.53Z"/><path class="cls-1" d="M170,32.09l1.36-2.23c1.92,1.47,5.91,2.64,9.25,2.64,3.64,0,7.33-1.12,7.33-4.77,0-3.41-3.64-4-7.63-4.73-6.12-1.11-9.35-2.38-9.35-6.9,0-5.89,5.51-7.62,10.26-7.62a17,17,0,0,1,9.2,2.54L189,13.3a14.93,14.93,0,0,0-7.93-2.13c-4.65,0-7.23,1.73-7.23,4.83,0,2.43,1.36,3.3,6.82,4.36,5.31,1,10.16,1.83,10.16,7.21,0,4.93-4.19,7.67-10.26,7.67C176.87,35.24,172.32,33.92,170,32.09Z"/><path class="cls-1" d="M195.42,32.09l1.36-2.23c1.92,1.47,5.91,2.64,9.25,2.64,3.64,0,7.33-1.12,7.33-4.77,0-3.41-3.64-4-7.63-4.73-6.12-1.11-9.35-2.38-9.35-6.9,0-5.89,5.51-7.62,10.26-7.62a17,17,0,0,1,9.2,2.54l-1.37,2.28a14.93,14.93,0,0,0-7.93-2.13c-4.65,0-7.23,1.73-7.23,4.83,0,2.43,1.36,3.3,6.82,4.36,5.31,1,10.16,1.83,10.16,7.21,0,4.93-4.19,7.67-10.26,7.67C202.34,35.24,197.79,33.92,195.42,32.09Z"/><path class="cls-1" d="M243.73,9.14,228.67,44.69h-2.89L230,34.53,218.56,9.14h3.13L231.5,31l9.1-21.89Z"/><rect class="cls-2" width="96.81" height="98.19" rx="17.5"/><path class="cls-1" d="M145.89,68.88C145.89,78.39,138.83,85,130,85c-4.36,0-7.92-1.6-10.19-4.36V98.5h-5.4v-45H119l.43,4.6a12.55,12.55,0,0,1,10.8-5.4C138.77,52.69,145.89,59.31,145.89,68.88Zm-5.65-.06c0-6.56-4.23-11-10.49-11s-10.49,4.36-10.49,11,4.23,11,10.49,11S140.24,75.39,140.24,68.82Z"/><path class="cls-1" d="M179.38,65.14v19h-4.54l-.43-4.91A14.06,14.06,0,0,1,162.88,85C157.3,85,152,81.58,152,75.08c0-7.12,6.38-9.88,12.39-9.88a36.84,36.84,0,0,1,9.64,1.35V65.14c0-4.78-2.83-7.3-7.92-7.3a16.45,16.45,0,0,0-9.88,3.25l-2.39-4.17a21.11,21.11,0,0,1,12.95-4.23C174.78,52.69,179.38,56.92,179.38,65.14Zm-5.33,6a29.69,29.69,0,0,0-8.84-1.28c-4.23,0-7.54,1.41-7.54,5.09,0,3.13,2.45,4.78,6.07,4.78C168.77,79.74,174.05,76.43,174.05,71.15Z"/><path class="cls-1" d="M205.4,53.36l-1.84,5.1a10.28,10.28,0,0,0-3.38-.62A9,9,0,0,0,190.92,67V84.16h-5.4V53.49h4.6l.43,5A12,12,0,0,1,201,52.69,14.42,14.42,0,0,1,205.4,53.36Z"/><path class="cls-1" d="M222.45,70.6l-5.52,5.77v7.79h-5.4v-36h5.4V68.88l14.54-15.39H239L226.13,66.8l13.13,17.36h-6.69Z"/><path class="cls-2" d="M244.88,46.17a3,3,0,1,1,3,3A3,3,0,0,1,244.88,46.17Z"/><rect class="cls-1" x="245.15" y="53.49" width="5.4" height="30.68"/><path class="cls-1" d="M284.42,65.14v19H279V65.76a7.56,7.56,0,0,0-7.86-7.92c-4.41,0-9.32,2.89-9.32,8.47V84.16h-5.4V53.49H261l.43,4.6a12,12,0,0,1,10.43-5.4C279,52.69,284.42,57.78,284.42,65.14Z"/><path class="cls-1" d="M319.63,57.17l-5.15.43a10.81,10.81,0,0,1,2,6.44c0,6.81-5.21,11.29-12.82,11.29a16.44,16.44,0,0,1-3.93-.43h-.8c-2.14,0-3.37,1-3.37,2.82s1.29,2.39,3.37,2.39h5.34c10.49,0,15.4,3,15.4,9.63s-4.85,10.56-15.34,10.56S288.4,95.76,288.4,90c0-3.25,1.66-5.28,4.42-6.69a6.68,6.68,0,0,1-2.76-5.46,5.59,5.59,0,0,1,4.17-5.64A10.64,10.64,0,0,1,290.74,64c0-6.75,5.09-11.35,12.88-11.35a16.51,16.51,0,0,1,5.15.8h10.86Zm-15.4,28h-5.34a7.58,7.58,0,0,1-1.16-.06c-2.58,1.11-3.68,2.64-3.68,4.67,0,2.88,2.57,5.39,10.31,5.39,7.11,0,9.69-2,9.69-5.46S311.66,85.2,304.23,85.2ZM310.92,64c0-3.93-2.58-6.32-7.3-6.32s-7.36,2.39-7.36,6.32,2.51,6.26,7.36,6.26S310.92,68,310.92,64Z"/><path class="cls-1" d="M79.78,42.74a30.82,30.82,0,0,1-9,21.91C63.55,72,56.2,79.26,48.9,86.58c-.39.4-.6.41-1,0-6.52-6.53-13.1-13-19.57-19.58L25.9,64.53a33.42,33.42,0,0,1-3.35-4A30.34,30.34,0,0,1,17.13,40.2a31.38,31.38,0,0,1,62.23-2.67A29.3,29.3,0,0,1,79.78,42.74Z"/><path class="cls-2" d="M55.29,29.58a15.34,15.34,0,0,0-19.17,4.51A16,16,0,0,0,34.89,36L22.55,60.54a33.42,33.42,0,0,0,3.35,4L28.33,67l7.52-14.93a15.33,15.33,0,1,0,19.44-22.5Zm-1.4,16.89a6.15,6.15,0,1,1-2.72-8.25A6.13,6.13,0,0,1,53.89,46.47Z"/></g></g></svg>