<svg xmlns="http://www.w3.org/2000/svg" viewBox="0 0 317.63 98.19"><defs><style>.cls-1{fill:#fff;}.cls-2{fill:#fec400;}.cls-3{fill:#22262f;}</style></defs><title>Logo White </title><g id="Layer_2" data-name="Layer 2"><g id="Layer_1-2" data-name="Layer 1"><path class="cls-1" d="M126,28.87a11.56,11.56,0,0,0,8.47-3.53l1.81,2.19A14.26,14.26,0,0,1,126,31.65c-7.83,0-13.58-5.72-13.58-14.23,0-8.18,5.38-13.91,13.31-13.91,8.1,0,12.15,6.05,12.15,12.25a16.42,16.42,0,0,1-.27,2.89H115.45C115.93,24.75,120,28.87,126,28.87ZM134.72,16V15.5c0-5.19-3.35-9.21-9-9.21S116,10.15,115.45,16Z"/><path class="cls-1" d="M165.28,14.59V31h-2.56l-.26-4.86a12.68,12.68,0,0,1-10.6,5.56c-4.79,0-9.27-2.84-9.27-8.35,0-5.93,5.27-8.34,10.92-8.34a29.58,29.58,0,0,1,8.84,1.39V14.59c0-5.46-2.77-8.24-7.94-8.24a14.42,14.42,0,0,0-9.1,3.15l-1.39-2.3a17,17,0,0,1,10.81-3.69C161.39,3.51,165.28,7.1,165.28,14.59Zm-2.93,5.83V19a25.68,25.68,0,0,0-8.47-1.44c-4.58,0-8.2,1.66-8.2,5.72,0,3.42,2.66,5.51,6.6,5.51C157.45,28.76,162.35,25.28,162.35,20.42Z"/><path class="cls-1" d="M170.91,28.39,172.35,26c2,1.55,6.23,2.78,9.74,2.78,3.84,0,7.72-1.17,7.72-5,0-3.59-3.83-4.18-8-5-6.44-1.18-9.85-2.51-9.85-7.27,0-6.21,5.81-8,10.81-8a17.79,17.79,0,0,1,9.69,2.68L191,8.59a15.83,15.83,0,0,0-8.37-2.24c-4.89,0-7.61,1.82-7.61,5.08,0,2.57,1.44,3.48,7.19,4.6,5.59,1,10.7,1.93,10.7,7.6,0,5.18-4.42,8.07-10.81,8.07C178.2,31.7,173.41,30.31,170.91,28.39Z"/><path class="cls-1" d="M197.74,28.39,199.18,26c2,1.55,6.23,2.78,9.74,2.78,3.84,0,7.72-1.17,7.72-5,0-3.59-3.83-4.18-8-5-6.44-1.18-9.85-2.51-9.85-7.27,0-6.21,5.81-8,10.81-8a17.79,17.79,0,0,1,9.69,2.68l-1.43,2.4a15.83,15.83,0,0,0-8.37-2.24c-4.89,0-7.61,1.82-7.61,5.08,0,2.57,1.44,3.48,7.19,4.6,5.59,1,10.7,1.93,10.7,7.6,0,5.18-4.42,8.07-10.81,8.07C205,31.7,200.24,30.31,197.74,28.39Z"/><path class="cls-1" d="M248.63,4.21,232.77,41.65h-3L234.2,31,222.12,4.21h3.3l10.33,23.05,9.58-23Z"/><rect class="cls-2" width="96.81" height="98.19" rx="17.5"/><path class="cls-1" d="M143.89,63.18c0,9.51-7.06,16.08-15.89,16.08-4.36,0-7.92-1.6-10.19-4.36V93.8h-5.4v-46H117l.43,4.61a12.55,12.55,0,0,1,10.8-5.4C136.77,47,143.89,53.61,143.89,63.18Zm-5.65-.06c0-6.56-4.23-11-10.49-11s-10.49,4.36-10.49,11,4.23,11,10.49,11S138.24,69.69,138.24,63.12Z"/><path class="cls-1" d="M177.38,59.44v19h-4.54l-.43-4.91a14.09,14.09,0,0,1-11.53,5.71c-5.58,0-10.86-3.38-10.86-9.88,0-7.12,6.38-9.88,12.39-9.88a36.84,36.84,0,0,1,9.64,1.35V59.44c0-4.78-2.83-7.3-7.92-7.3a16.45,16.45,0,0,0-9.88,3.25l-2.39-4.17A21.11,21.11,0,0,1,164.81,47C172.78,47,177.38,51.22,177.38,59.44Zm-5.33,6a29.69,29.69,0,0,0-8.84-1.28c-4.23,0-7.54,1.41-7.54,5.09,0,3.13,2.45,4.78,6.07,4.78C166.77,74,172.05,70.73,172.05,65.45Z"/><path class="cls-1" d="M203.4,47.66l-1.84,5.09a10.54,10.54,0,0,0-3.38-.61,9,9,0,0,0-9.26,9.14V78.46h-5.4V47.78h4.6l.43,5A12,12,0,0,1,199,47,14.42,14.42,0,0,1,203.4,47.66Z"/><path class="cls-1" d="M220.45,64.9l-5.52,5.77v7.79h-5.4v-36h5.4V63.18l14.54-15.4H237L224.13,61.1l13.13,17.36h-6.69Z"/><path class="cls-2" d="M242.88,41.2a3,3,0,1,1,3,3A3,3,0,0,1,242.88,41.2Z"/><rect class="cls-1" x="243.15" y="47.78" width="5.4" height="30.68"/><path class="cls-1" d="M282.42,59.44v19H277V60.05a7.55,7.55,0,0,0-7.86-7.91c-4.41,0-9.32,2.88-9.32,8.47V78.46h-5.4V47.78H259l.43,4.61A12,12,0,0,1,269.9,47C277,47,282.42,52.08,282.42,59.44Z"/><path class="cls-1" d="M317.63,51.47l-5.15.43a10.79,10.79,0,0,1,2,6.44c0,6.81-5.21,11.29-12.82,11.29a16.44,16.44,0,0,1-3.93-.43h-.8c-2.14,0-3.37,1-3.37,2.82s1.29,2.39,3.37,2.39h5.34c10.49,0,15.4,3,15.4,9.63S312.78,94.6,302.29,94.6,286.4,90.06,286.4,84.29c0-3.25,1.66-5.28,4.42-6.69a6.68,6.68,0,0,1-2.76-5.46,5.59,5.59,0,0,1,4.17-5.64,10.64,10.64,0,0,1-3.49-8.16c0-6.75,5.09-11.35,12.88-11.35a16.82,16.82,0,0,1,5.15.79h10.86Zm-15.4,28h-5.34a7.58,7.58,0,0,1-1.16-.06c-2.58,1.11-3.68,2.64-3.68,4.66,0,2.89,2.57,5.4,10.31,5.4,7.11,0,9.69-2,9.69-5.46S309.66,79.5,302.23,79.5Zm6.69-21.16c0-3.93-2.58-6.32-7.3-6.32s-7.36,2.39-7.36,6.32,2.51,6.25,7.36,6.25S308.92,62.32,308.92,58.34Z"/><path class="cls-3" d="M76.35,43.44a27.46,27.46,0,0,1-8,19.51c-6.45,6.55-13,13-19.49,19.53-.35.35-.54.36-.9,0-5.8-5.82-11.66-11.58-17.42-17.44-.73-.73-1.45-1.47-2.17-2.2a30,30,0,0,1-3-3.57,27,27,0,0,1-4.83-18.11A27.94,27.94,0,0,1,76,38.79,25.83,25.83,0,0,1,76.35,43.44Z"/><path class="cls-2" d="M54.54,31.72a13.64,13.64,0,0,0-17.07,4,14.52,14.52,0,0,0-1.1,1.73l-11,21.82a30,30,0,0,0,3,3.57c.72.73,1.44,1.47,2.17,2.2l6.7-13.3a13.65,13.65,0,1,0,17.31-20Zm-1.25,15a5.47,5.47,0,1,1-2.42-7.35A5.47,5.47,0,0,1,53.29,46.76Z"/></g></g></svg>